<?xml version="1.0" ?><svg id="Icons" viewBox="0 0 24 24" xmlns="http://www.w3.org/2000/svg" xmlns:xlink="http://www.w3.org/1999/xlink"><defs><style>.cls-1{fill:url(#linear-gradient);}.cls-2{fill:#ed960a;}</style><linearGradient gradientUnits="userSpaceOnUse" id="linear-gradient" x1="12" x2="12" y1="3" y2="21"><stop offset="0" stop-color="#fff650"/><stop offset="1" stop-color="#ffab17"/></linearGradient></defs><rect class="cls-1" height="18" rx="3" width="22" x="1" y="3"/><path class="cls-2" d="M15.717,12.029l3.956-3.6a1,1,0,0,0-1.346-1.48L13.35,11.479a2.005,2.005,0,0,1-2.7,0L5.673,6.95A1,1,0,1,0,4.327,8.43l3.957,3.6L4.328,15.62A1,1,0,1,0,5.672,17.1l4.143-3.76a3.937,3.937,0,0,0,4.37,0l4.143,3.76a1,1,0,1,0,1.344-1.48Z"/></svg>